<?xml version="1.0" standalone="no"?>
<!DOCTYPE svg PUBLIC "-//W3C//DTD SVG 20010904//EN"
 "http://www.w3.org/TR/2001/REC-SVG-20010904/DTD/svg10.dtd">
<svg version="1.0" xmlns="http://www.w3.org/2000/svg"
 width="512.000000pt" height="512.000000pt" viewBox="0 0 512.000000 512.000000"
 preserveAspectRatio="xMidYMid meet">

<g transform="translate(0.000000,512.000000) scale(0.100000,-0.100000)"
fill="#000000" stroke="none">
<path d="M1521 4694 c-12 -15 -21 -38 -21 -51 0 -36 179 -465 202 -485 27 -24
79 -23 112 3 44 35 36 72 -64 310 -50 118 -100 222 -111 232 -33 27 -93 23
-118 -9z"/>
<path d="M2389 4691 l-29 -29 0 -167 c0 -100 4 -174 11 -187 6 -11 26 -26 44
-34 39 -16 69 -8 100 26 18 19 20 39 23 163 4 165 -1 201 -33 233 -34 34 -79
32 -116 -5z"/>
<path d="M3261 4693 c-20 -17 -211 -450 -211 -479 0 -70 91 -109 143 -61 26
23 207 443 207 478 0 11 -13 34 -29 50 -34 34 -78 38 -110 12z"/>
<path d="M925 4095 c-18 -17 -25 -35 -25 -61 0 -34 10 -47 116 -155 64 -64
128 -120 141 -124 33 -8 91 12 103 35 13 24 13 66 0 89 -5 10 -63 68 -129 130
-134 123 -159 134 -206 86z"/>
<path d="M3782 4009 c-150 -143 -159 -158 -127 -219 36 -71 95 -47 244 96 104
101 113 112 114 148 1 30 -5 44 -27 62 -52 45 -74 36 -204 -87z"/>
<path d="M2226 3764 c-161 -29 -329 -98 -476 -197 -150 -100 -318 -293 -403
-462 -61 -123 -109 -299 -120 -451 l-5 -60 162 -38 c354 -84 709 -194 1019
-316 l156 -62 228 85 c245 92 537 184 751 238 l132 34 0 70 c0 38 -7 111 -15
161 -82 506 -487 911 -999 999 -110 19 -323 18 -430 -1z"/>
<path d="M4300 3435 c-118 -47 -225 -90 -236 -96 -25 -13 -44 -49 -44 -85 0
-34 42 -74 77 -74 45 0 465 168 491 197 23 26 29 71 12 103 -8 15 -58 40 -79
40 -3 0 -103 -39 -221 -85z"/>
<path d="M309 3481 c-33 -33 -35 -50 -14 -90 12 -25 45 -41 246 -120 127 -50
244 -91 260 -91 35 0 79 39 79 69 0 35 -22 70 -54 85 -82 39 -444 176 -464
176 -13 0 -37 -13 -53 -29z"/>
<path d="M0 1508 c0 -1076 1 -1108 19 -1108 11 0 62 49 128 123 505 561 1197
1075 1957 1452 l228 114 -35 14 c-19 9 -115 43 -214 77 -629 217 -1334 366
-2045 432 l-38 4 0 -1108z"/>
<path d="M5030 2608 c-47 -5 -175 -19 -285 -33 -1751 -222 -3273 -932 -4335
-2021 l-145 -149 2424 -3 c1333 -1 2426 -1 2428 1 2 2 2 501 1 1108 l-3 1104
-85 -7z"/>
</g>
</svg>
