<?xml version="1.0" standalone="no"?>
<!DOCTYPE svg PUBLIC "-//W3C//DTD SVG 20010904//EN"
 "http://www.w3.org/TR/2001/REC-SVG-20010904/DTD/svg10.dtd">
<svg version="1.0" xmlns="http://www.w3.org/2000/svg"
 width="512.000000pt" height="512.000000pt" viewBox="0 0 512.000000 512.000000"
 preserveAspectRatio="xMidYMid meet">

<g transform="translate(0.000000,512.000000) scale(0.100000,-0.100000)"
fill="#000000" stroke="none">
<path d="M2960 4744 c-233 -50 -435 -251 -501 -501 -27 -101 -30 -277 -5 -378
21 -90 101 -251 167 -340 90 -119 330 -350 657 -629 172 -147 319 -269 327
-272 8 -3 72 45 157 118 80 68 245 209 369 314 235 201 408 371 497 489 63 84
134 226 159 315 24 89 24 290 -1 380 -37 139 -115 267 -221 362 -136 121 -346
180 -534 148 -136 -23 -301 -126 -389 -243 l-20 -28 -94 94 c-102 102 -173
144 -289 172 -78 18 -192 18 -279 -1z"/>
<path d="M1650 2645 c-159 -32 -284 -99 -476 -253 -230 -185 -391 -329 -649
-578 -226 -219 -322 -308 -488 -451 l-37 -32 367 -483 c201 -266 367 -484 369
-486 1 -2 53 31 115 73 330 220 635 318 994 318 177 0 167 2 690 -88 485 -83
500 -85 683 -85 253 0 430 38 629 136 212 104 448 279 659 490 239 239 349
417 520 834 98 242 110 298 77 367 -26 56 -66 75 -143 70 -166 -11 -274 -109
-534 -482 -54 -77 -126 -169 -159 -204 -169 -174 -391 -287 -631 -320 -48 -7
-298 -11 -652 -11 l-574 0 0 149 0 148 408 6 c499 7 687 26 920 93 225 65 326
178 245 275 -38 44 -145 93 -271 123 -59 14 -249 46 -422 71 -620 90 -855 144
-1161 265 -169 68 -327 86 -479 55z"/>
</g>
</svg>
