<?xml version="1.0" standalone="no"?>
<!DOCTYPE svg PUBLIC "-//W3C//DTD SVG 20010904//EN"
 "http://www.w3.org/TR/2001/REC-SVG-20010904/DTD/svg10.dtd">
<svg version="1.0" xmlns="http://www.w3.org/2000/svg"
 width="512.000000pt" height="512.000000pt" viewBox="0 0 512.000000 512.000000"
 preserveAspectRatio="xMidYMid meet">

<g transform="translate(0.000000,512.000000) scale(0.100000,-0.100000)"
fill="#000000" stroke="none">
<path d="M1858 5099 c-43 -22 -78 -81 -78 -129 0 -77 74 -150 152 -150 43 0
126 -40 161 -77 15 -16 44 -63 65 -103 46 -92 75 -115 147 -115 72 0 101 23
147 115 21 40 50 87 65 103 35 37 118 77 161 77 78 0 152 73 152 150 0 51 -35
107 -82 131 -35 18 -53 20 -103 16 -101 -10 -225 -62 -310 -132 l-31 -24 -44
36 c-83 66 -234 124 -325 123 -22 -1 -57 -10 -77 -21z"/>
<path d="M78 4799 c-43 -22 -78 -81 -78 -129 0 -77 74 -150 152 -150 43 0 126
-40 161 -77 15 -16 44 -63 65 -103 46 -92 75 -115 147 -115 72 0 101 23 147
115 21 40 50 87 65 103 35 37 118 77 161 77 78 0 152 73 152 150 0 51 -35 107
-82 131 -35 18 -53 20 -103 16 -101 -10 -225 -62 -310 -132 l-31 -24 -44 36
c-83 66 -234 124 -325 123 -22 -1 -57 -10 -77 -21z"/>
<path d="M408 3949 c-43 -22 -78 -81 -78 -129 0 -77 74 -150 153 -150 53 0
145 -28 219 -67 92 -48 176 -139 223 -240 80 -174 94 -188 180 -188 86 0 100
14 180 188 47 101 131 192 223 240 74 39 166 67 219 67 79 0 153 73 153 150 0
51 -35 107 -82 131 -135 69 -498 -72 -649 -251 l-41 -48 -77 76 c-117 117
-260 193 -423 226 -101 21 -155 20 -200 -5z"/>
<path d="M2917 3589 c-565 -65 -1055 -413 -1302 -924 -77 -160 -132 -343 -151
-508 l-7 -57 -669 0 c-651 0 -670 -1 -708 -20 -45 -23 -80 -80 -80 -130 0 -50
35 -107 80 -130 39 -20 53 -20 2480 -20 2427 0 2441 0 2480 20 45 23 80 80 80
130 0 50 -35 107 -80 130 -33 17 -59 20 -168 20 l-128 0 -13 88 c-125 874
-939 1503 -1814 1401z"/>
<path d="M988 1479 c-43 -22 -78 -81 -78 -129 0 -50 35 -107 80 -130 35 -18
59 -20 220 -20 161 0 185 2 220 20 45 23 80 80 80 130 0 50 -35 107 -80 130
-35 18 -58 20 -222 20 -162 -1 -187 -3 -220 -21z"/>
<path d="M1888 1479 c-43 -22 -78 -81 -78 -129 0 -50 35 -107 80 -130 39 -20
56 -20 1420 -20 1364 0 1381 0 1420 20 45 23 80 80 80 130 0 50 -35 107 -80
130 -39 20 -55 20 -1422 20 -1357 -1 -1384 -1 -1420 -21z"/>
<path d="M3098 879 c-43 -22 -78 -81 -78 -129 0 -50 35 -107 80 -130 37 -19
58 -20 370 -20 312 0 333 1 370 20 45 23 80 80 80 130 0 50 -35 107 -80 130
-37 19 -58 20 -372 20 -312 -1 -335 -2 -370 -21z"/>
<path d="M4298 879 c-43 -22 -78 -81 -78 -129 0 -50 35 -107 80 -130 37 -19
58 -20 370 -20 312 0 333 1 370 20 45 23 80 80 80 130 0 50 -35 107 -80 130
-37 19 -58 20 -372 20 -312 -1 -335 -2 -370 -21z"/>
<path d="M1898 279 c-43 -22 -78 -81 -78 -129 0 -50 35 -107 80 -130 39 -20
56 -20 1270 -20 1214 0 1231 0 1270 20 45 23 80 80 80 130 0 50 -35 107 -80
130 -39 20 -56 20 -1272 20 -1208 -1 -1234 -1 -1270 -21z"/>
</g>
</svg>
