<?xml version="1.0" standalone="no"?>
<!DOCTYPE svg PUBLIC "-//W3C//DTD SVG 20010904//EN"
 "http://www.w3.org/TR/2001/REC-SVG-20010904/DTD/svg10.dtd">
<svg version="1.0" xmlns="http://www.w3.org/2000/svg"
 width="512.000000pt" height="512.000000pt" viewBox="0 0 512.000000 512.000000"
 preserveAspectRatio="xMidYMid meet">

<g transform="translate(0.000000,512.000000) scale(0.100000,-0.100000)"
fill="#000000" stroke="none">
<path d="M2505 4445 l-25 -24 0 -311 0 -311 25 -24 c15 -16 36 -25 55 -25 19
0 40 9 55 25 l25 24 0 311 0 311 -25 24 c-15 16 -36 25 -55 25 -19 0 -40 -9
-55 -25z"/>
<path d="M1433 4165 c-12 -8 -24 -29 -28 -46 -6 -27 11 -62 140 -287 81 -142
154 -265 164 -274 45 -46 131 -12 131 52 0 33 -265 505 -307 548 -26 26 -69
29 -100 7z"/>
<path d="M3587 4158 c-42 -43 -307 -515 -307 -548 0 -64 86 -98 131 -52 10 9
83 133 164 274 120 210 146 262 141 283 -16 63 -86 86 -129 43z"/>
<path d="M2455 3624 c-504 -50 -917 -330 -1139 -773 -74 -147 -118 -297 -141
-488 l-7 -53 -363 0 -364 0 -20 -26 c-28 -35 -26 -67 3 -101 l24 -28 2112 0
2112 0 24 28 c29 34 31 66 3 101 l-20 26 -364 0 -363 0 -7 53 c-43 346 -175
625 -406 856 -196 197 -465 339 -730 385 -90 16 -286 27 -354 20z"/>
<path d="M640 3370 c-30 -30 -36 -68 -14 -97 11 -14 116 -82 234 -150 292
-169 305 -176 335 -169 57 15 83 82 48 124 -15 17 -389 238 -500 295 -43 22
-79 21 -103 -3z"/>
<path d="M4385 3378 c-200 -110 -508 -294 -515 -308 -25 -46 3 -103 55 -116
30 -7 45 0 335 168 117 69 223 136 233 150 49 65 -35 147 -108 106z"/>
<path d="M925 1785 c-40 -40 -30 -96 22 -123 31 -17 3195 -17 3226 0 52 27 62
83 22 123 l-24 25 -1611 0 -1611 0 -24 -25z"/>
<path d="M1425 1285 c-33 -32 -33 -78 0 -111 l24 -24 1117 2 1116 3 19 24 c26
32 24 77 -6 106 l-24 25 -1111 0 -1111 0 -24 -25z"/>
<path d="M1925 785 c-16 -15 -25 -36 -25 -55 0 -19 9 -40 25 -55 l24 -25 611
0 611 0 24 25 c33 32 33 78 0 110 l-24 25 -611 0 -611 0 -24 -25z"/>
</g>
</svg>
