<?xml version="1.0" standalone="no"?>
<!DOCTYPE svg PUBLIC "-//W3C//DTD SVG 20010904//EN"
 "http://www.w3.org/TR/2001/REC-SVG-20010904/DTD/svg10.dtd">
<svg version="1.0" xmlns="http://www.w3.org/2000/svg"
 width="512.000000pt" height="512.000000pt" viewBox="0 0 512.000000 512.000000"
 preserveAspectRatio="xMidYMid meet">

<g transform="translate(0.000000,512.000000) scale(0.100000,-0.100000)"
fill="#000000" stroke="none">
<path d="M1598 3940 c-201 -32 -359 -110 -494 -244 -187 -188 -273 -440 -245
-718 21 -195 64 -323 194 -567 129 -241 146 -252 547 -336 118 -25 230 -50
247 -56 97 -32 97 -166 0 -198 -33 -11 -53 -7 -695 139 -101 23 -186 39 -189
36 -5 -5 -103 -569 -100 -572 4 -3 719 -165 813 -184 283 -59 540 -76 672 -45
134 32 222 100 275 212 25 55 28 69 18 85 -6 10 -83 112 -170 226 -187 246
-233 312 -273 399 -52 111 -49 247 8 352 39 71 55 35 -169 402 -114 187 -125
222 -92 273 38 57 127 59 168 3 13 -18 82 -129 152 -247 70 -118 131 -219 135
-223 4 -5 79 43 168 106 88 63 172 117 186 121 56 14 126 -43 126 -103 0 -49
-29 -77 -225 -216 -199 -142 -241 -177 -265 -225 -21 -40 -17 -129 8 -177 17
-32 360 -502 391 -536 5 -5 202 132 270 190 3 2 -37 88 -87 191 -51 104 -92
198 -92 210 0 45 26 76 114 134 48 32 99 58 113 58 65 0 121 -69 108 -131 -4
-16 -25 -44 -48 -65 l-42 -36 90 -173 89 -174 96 -22 c52 -11 104 -23 116 -26
17 -4 24 4 39 44 73 194 253 451 352 501 l33 17 -85 124 c-113 163 -241 329
-366 476 -192 224 -534 548 -714 677 -202 144 -458 243 -735 282 -134 19 -368
27 -442 16z"/>
<path d="M4382 2210 c-18 -4 -34 -9 -36 -11 -2 -2 79 -188 180 -414 101 -225
193 -432 204 -458 l21 -48 46 33 c88 63 161 176 188 290 62 263 -102 533 -366
603 -57 16 -182 18 -237 5z"/>
<path d="M3994 2148 c-101 -89 -246 -339 -284 -492 -33 -132 -24 -218 31 -281
31 -35 61 -48 199 -88 47 -13 134 -43 194 -67 126 -48 207 -58 330 -41 44 6
82 13 84 16 3 2 -93 225 -213 495 l-218 490 -43 0 c-35 0 -51 -7 -80 -32z"/>
<path d="M340 2121 c-92 -30 -164 -94 -204 -181 l-26 -55 0 -305 c0 -285 1
-307 20 -337 10 -18 30 -39 44 -48 35 -23 112 -22 145 2 14 11 65 77 113 148
48 71 92 133 97 138 6 6 29 5 61 -2 29 -6 55 -9 58 -6 9 9 100 570 94 576 -4
4 -65 21 -136 39 -138 34 -225 45 -266 31z"/>
<path d="M3045 1564 c-60 -46 -109 -89 -107 -95 3 -14 193 -248 222 -274 21
-19 36 -20 234 -20 236 0 266 4 266 38 -1 37 -29 61 -176 151 -205 125 -256
164 -293 230 -18 31 -33 56 -34 55 -1 0 -51 -38 -112 -85z"/>
</g>
</svg>
